REM MD5 9545a0493cfe0e1e19c62ad89c0f6376
FILE "Euro Demo 85 (Europe).bin" BINARY
  TRACK 01 MODE2/2352
    INDEX 01 00:00:00
  TRACK 02 AUDIO
    INDEX 00 40:58:68
    INDEX 01 41:00:68
  TRACK 03 AUDIO
    INDEX 00 42:10:64
    INDEX 01 42:12:64
REM LEADOUT 45:14:21
